<svg width="24" height="25" viewBox="0 0 24 25" fill="none" xmlns="http://www.w3.org/2000/svg">
<path d="M9 12.7461H15" stroke="#2DB324" stroke-width="1.5" stroke-linecap="round" stroke-linejoin="round"/>
<path d="M9 15.7461H15" stroke="#2DB324" stroke-width="1.5" stroke-linecap="round" stroke-linejoin="round"/>
<path d="M5.25 4.49609H18.75C18.9489 4.49609 19.1397 4.57511 19.2803 4.71576C19.421 4.85642 19.5 5.04718 19.5 5.24609V19.4961C19.5 20.0928 19.2629 20.6651 18.841 21.0871C18.419 21.509 17.8467 21.7461 17.25 21.7461H6.75C6.15326 21.7461 5.58097 21.509 5.15901 21.0871C4.73705 20.6651 4.5 20.0928 4.5 19.4961V5.24609C4.5 5.04718 4.57902 4.85642 4.71967 4.71576C4.86032 4.57511 5.05109 4.49609 5.25 4.49609V4.49609Z" stroke="#2DB324" stroke-width="1.5" stroke-linecap="round" stroke-linejoin="round"/>
<path d="M7.5 2.99609V5.99609" stroke="#2DB324" stroke-width="1.5" stroke-linecap="round" stroke-linejoin="round"/>
<path d="M12 2.99609V5.99609" stroke="#2DB324" stroke-width="1.5" stroke-linecap="round" stroke-linejoin="round"/>
<path d="M16.5 2.99609V5.99609" stroke="#2DB324" stroke-width="1.5" stroke-linecap="round" stroke-linejoin="round"/>
</svg>
